# xmcd
#
# Track frame offsets: 
#        150
#        27355
#        50402
#        68870
#        96610
#        111365
#        137915
#        158845
#        185560
#        204100
#        215845
#        234292
#
# Disc length: 3375 seconds
#
# Revision: 5
# Processed by: cddbd v1.5.2PL0 Copyright (c) Steve Scherf et al.
# Submitted via: ExactAudioCopy v0.99pb5
#
DISCID=b10d2d0c
DTITLE=Sydney Ellis - Amazing Grace
DYEAR=1995
DGENRE=Blues
TTITLE0=Didn't It Rain (B. Smith)
TTITLE1=Precious Lord (Dorsey P.D.)
TTITLE2=Joshua Fit The Battle Of Jerico (Traditional)
TTITLE3=Nobody's Fault But Mine (Nina Simone)
TTITLE4=Walk All Over God's Heaven (Traditional)
TTITLE5=Motherless Child (Traditional)
TTITLE6=Canaan Land (Julius Cheek)
TTITLE7=Swing Low Sweet Chariot (Traditional)
TTITLE8=Yes, God Is Real (Kenneth Morris)
TTITLE9=He's Got The Whole World In His Hands (Traditional)
TTITLE10=Trouble Of The World (Traditional)
TTITLE11=Amazing Grace (Traditional)
EXTD=
EXTT0=
EXTT1=
EXTT2=
EXTT3=
EXTT4=
EXTT5=
EXTT6=
EXTT7=
EXTT8=
EXTT9=
EXTT10=
EXTT11=
PLAYORDER=
